# xmcd
#
# Track frame offsets:
#	150
#	14586
#	28059
#	40180
#	51887
#	65156
#	79262
#	97821
#	111250
#	123993
#	137117
#	152249
#	165631
#	180481
#	202933
#	214195
#	231220
#
# Disc length: 3285 seconds
#
# Revision: 1
# Processed by: cddbd v1.5.2PL0 Copyright (c) Steve Scherf et al.
# Submitted via: EasyCDDAExtractor 12.0.4.1
#
DISCID=eb0cd311
DTITLE=Various Artist - Motown Men
DYEAR=2004
DGENRE=Motown
TTITLE0=Marvin Gaye - I Heard It Through The Grapevine
TTITLE1=Smokey Robinson and The Miracles - The Tears Of A Clown
TTITLE2=Four Tops - I Can't Help Myself
TTITLE3=Barrett Strong - Money
TTITLE4=Isley Brothers - How Sweet It Is
TTITLE5=Spinners - It's A Shame
TTITLE6=Temptations - Ball Of Confusion
TTITLE7=Jackson 5 - ABC
TTITLE8=David Ruffin - I Want You Back
TTITLE9=Jimmy Ruffin - What Becomes Of The Broken Hearted
TTITLE10=Michael Jackson - Got To Be There
TTITLE11=Miracles - You Really Got A  Hold On Me
TTITLE12=Originals - Baby, I'm For Real
TTITLE13=Eddie Kendricks - Any Day Now
TTITLE14=Junior Walker - What Does It Take
TTITLE15=Commodores - Still
TTITLE16=Edwin Starr - War
EXTD=
EXTT0=
EXTT1=
EXTT2=
EXTT3=
EXTT4=
EXTT5=
EXTT6=
EXTT7=
EXTT8=
EXTT9=
EXTT10=
EXTT11=
EXTT12=
EXTT13=
EXTT14=
EXTT15=
EXTT16=
PLAYORDER=
